# xmcd
#
# Track frame offsets:
#	150
#	3253
#	17082
#	18208
#	31761
#	46008
#	66568
#	70957
#	72631
#	91545
#	109177
#	125688
#	130374
#	145760
#	157337
#	170142
#	185461
#	194637
#	205634
#	220802
#	233755
#	234722
#	254300
#	275603
#	276461
#	292179
#	297987
#	310869
#	328185
#	334575
#	338349
#	347627
#
# Disc length: 4666 seconds
#
# Revision: 0
# Processed by: cddbd v1.4PL0 Copyright (c) Steve Scherf et al.
# Submitted via: EasyCDDAExtractor 5.0.5.1
#
DISCID=f4123820
DTITLE=Various Artist - Back To The Block 3: Goin' Out For The Loot
DYEAR=2002
DGENRE=Hip-Hop
TTITLE0=ADG/Never A Flaw Production Presents... - Out For The Loot Intro
TTITLE1=X Is Gonna Give It To You - DMX
TTITLE2=03 - Interlude
TTITLE3=04 - Gun Music - Talib Kweli and Cocoa Brovaz
TTITLE4=05 - Had It Up To Here - Boot Camp Clik
TTITLE5=06 - Whats Really Good - Diplomats and DMX
TTITLE6=07 - Nas ADG Blend
TTITLE7=08 - Interlude
TTITLE8=09 - Last Real Nigga Alive - Nas
TTITLE9=10 - Blueprint 2 - Jay Z
TTITLE10=11 - I Smell Pussy - G-Unit
TTITLE11=12 - N.O.R.E. Verse
TTITLE12=13 - Philly Is Home - Beanie Sigel and Young Chris
TTITLE13=14 - What Ever Happened To... - Loon
TTITLE14=15 - Back In The Day - Jay Z and Missy
TTITLE15=16 - Gangsta - Fat Joe
TTITLE16=17 - Love Me - Eminem and 50 Cent
TTITLE17=18 - Stay With You - Joe Buddens and Kelly Rowland
TTITLE18=19 - Juiciest - Alicia Keys
TTITLE19=20 - I Wanna Girl ADG Mix - Jadakiss and Joe
TTITLE20=21 - Interlude
TTITLE21=22 - Forever - Lil Mo and Fabolous
TTITLE22=23 - Break Me Off - Musiq and The Roots
TTITLE23=24 - Interlude
TTITLE24=25 - Get In Touch With Us - Lil Kim and Styles P
TTITLE25=26 - Senator Call - Fidel Cashflow
TTITLE26=27 - Dear Mr. President - Fidel Cashflow
TTITLE27=28 - Thug Mansion (NY) - Nas and Tupac
TTITLE28=29 - Tell Me ADG - Smilez and Southstar
TTITLE29=30 - Twista ADG Blend
TTITLE30=31 - Joe Budden Freestyle
TTITLE31=32 - Outro
EXTD=
EXTT0=
EXTT1=
EXTT2=
EXTT3=
EXTT4=
EXTT5=
EXTT6=
EXTT7=
EXTT8=
EXTT9=
EXTT10=
EXTT11=
EXTT12=
EXTT13=
EXTT14=
EXTT15=
EXTT16=
EXTT17=
EXTT18=
EXTT19=
EXTT20=
EXTT21=
EXTT22=
EXTT23=
EXTT24=
EXTT25=
EXTT26=
EXTT27=
EXTT28=
EXTT29=
EXTT30=
EXTT31=
PLAYORDER=
